<?xml version="1.0" ?><!DOCTYPE svg  PUBLIC '-//W3C//DTD SVG 1.1//EN'  'http://www.w3.org/Graphics/SVG/1.1/DTD/svg11.dtd'><svg enable-background="new 0 0 30 30" height="30px" id="Pinterest" version="1.1" viewBox="0 0 30 30" width="30px" xml:space="preserve" xmlns="http://www.w3.org/2000/svg" xmlns:xlink="http://www.w3.org/1999/xlink"><style type="text/css">#P{ fill: #ffffff }</style><path d="M16,0C7.813,0,3,6.105,3,11c0,2.964,2,6,3,6s2,0,2-1s-2-2-2-5c0-4.354,4.773-8,10-8c4.627,0,7,3.224,7,7  c0,4.968-2.735,9-6,9c-1.803,0-3.433-1.172-3-3c0.519-2.184,1-2,2-6c0.342-1.368-0.433-3-2-3c-1.843,0-4,1.446-4,4c0,1.627,1,3,1,3  s-2.245,7.863-2.576,9.263C7.766,26.049,6.938,30,7.938,30S10,28,12,23c0.295-0.738,1-3,1-3c0.599,1.142,3.14,2,5,2  c5.539,0,9-5.24,9-12C27,4.888,22.58,0,16,0z" id="P"/></svg>