<svg width="48" height="48" viewBox="0 0 48 48" fill="none" xmlns="http://www.w3.org/2000/svg">
<rect width="48" height="48" rx="4" fill="#FFE7D4"/>
<mask id="mask0_2770_1258" style="mask-type:alpha" maskUnits="userSpaceOnUse" x="6" y="6" width="36" height="36">
<rect x="6" y="6" width="36" height="36" fill="#D9D9D9"/>
</mask>
<g mask="url(#mask0_2770_1258)">
<path d="M24 39C21.925 39 19.975 38.6062 18.15 37.8187C16.325 37.0312 14.7375 35.9625 13.3875 34.6125C12.0375 33.2625 10.9688 31.675 10.1813 29.85C9.39375 28.025 9 26.075 9 24C9 20.7 9.9625 17.7313 11.8875 15.0938C13.8125 12.4562 16.35 10.65 19.5 9.675V12.9C17.225 13.825 15.4062 15.2937 14.0437 17.3062C12.6812 19.3187 12 21.55 12 24C12 27.35 13.1625 30.1875 15.4875 32.5125C17.8125 34.8375 20.65 36 24 36C27.35 36 30.1875 34.8375 32.5125 32.5125C34.8375 30.1875 36 27.35 36 24C36 21.55 35.3188 19.3187 33.9563 17.3062C32.5938 15.2937 30.775 13.825 28.5 12.9V9.675C31.65 10.65 34.1875 12.4562 36.1125 15.0938C38.0375 17.7313 39 20.7 39 24C39 26.075 38.6062 28.025 37.8187 29.85C37.0312 31.675 35.9625 33.2625 34.6125 34.6125C33.2625 35.9625 31.675 37.0312 29.85 37.8187C28.025 38.6062 26.075 39 24 39ZM24 30L16.5 22.5L18.6 20.4L22.5 24.2625V9H25.5V24.2625L29.4 20.4L31.5 22.5L24 30Z" fill="#E1581A"/>
</g>
</svg>
