<svg width="138" height="46" viewBox="0 0 138 46" fill="none" xmlns="http://www.w3.org/2000/svg">
<path d="M25.0015 2.64844H1.86911C1.38865 2.64844 1 3.03931 1 3.52248V37.7176C1 38.2007 1.38865 38.5916 1.86911 38.5916H4.58585V43.7284C4.58585 44.0825 4.79895 44.4018 5.12487 44.5367C5.45079 44.6723 5.82502 44.5956 6.0729 44.3429L7.9274 42.4582L9.78191 44.3429C10.0279 44.5941 10.4038 44.672 10.7299 44.5367C11.0559 44.4018 11.2689 44.0825 11.2689 43.7284V38.5916H25.0015C28.3557 38.5916 31.0853 35.8466 31.0853 32.4733V8.76673C31.0853 5.39345 28.3557 2.64844 25.0015 2.64844ZM2.73822 4.39652H7.05829V36.8436C6.70074 36.8436 2.64895 36.8436 2.73822 36.8436V4.39652ZM9.53065 41.6022L8.54525 40.6009C8.38229 40.4345 8.15911 40.3415 7.9274 40.3415C7.6957 40.3415 7.47242 40.4345 7.30946 40.6009L6.32407 41.6022V38.5916H9.53065V41.6022V41.6022ZM29.3471 32.4733C29.3471 34.883 27.3975 36.8436 25.0015 36.8436C18.6334 36.8436 11.4082 36.8436 8.79651 36.8436V4.39652H25.0015C27.3975 4.39652 29.3471 6.35708 29.3471 8.76673V32.4733Z" fill="#242628" stroke="#242628" stroke-width="0.834356"/>
<path d="M22.8294 14.3346C22.6294 14.3346 22.4294 14.3544 22.2313 14.3935C21.4725 13.5901 20.4553 13.1367 19.3838 13.1367C17.8256 13.1367 16.4458 14.047 15.7439 15.4962C13.825 15.4421 12.2983 17.1029 12.2983 19.1542C12.2983 20.626 13.1116 21.9342 14.3287 22.5033V27.2941C14.3287 27.6818 14.6186 27.9954 14.9768 27.9954H23.5294C23.8876 27.9954 24.1775 27.6818 24.1775 27.2941V21.3397C25.3921 20.7678 26.2041 19.4603 26.2041 17.9919C26.2041 15.9756 24.6902 14.3346 22.8294 14.3346ZM15.6249 26.5928V24.8436H22.8813V26.5928H15.6249ZM23.3636 20.1651C23.0794 20.2466 22.8813 20.5247 22.8813 20.8431V23.4409H15.6249V22.0054C15.6249 21.6862 15.4262 21.4075 15.1407 21.3267C14.2306 21.0692 13.5946 20.1754 13.5946 19.1542C13.5946 17.931 14.537 16.8975 15.6522 16.8975C15.7743 16.8975 15.8971 16.9105 16.0174 16.9358C16.3262 17.0002 16.6364 16.8146 16.7477 16.4948C17.1617 15.3071 18.1965 14.5394 19.3838 14.5394C20.2212 14.5394 20.9787 14.9243 21.518 15.6222C21.687 15.8407 21.9617 15.927 22.2098 15.8414C22.4124 15.7722 22.6212 15.7372 22.8294 15.7372C23.9757 15.7372 24.9079 16.7488 24.9079 17.9919C24.9079 19.011 24.2731 19.9048 23.3636 20.1651Z" fill="#242628" stroke="#242628" stroke-width="0.834356"/>
<path d="M42.3172 9.47534V6.12123H45.1874C45.7881 6.12123 46.2387 6.25472 46.539 6.52172C46.8394 6.77759 46.9896 7.19476 46.9896 7.77325C46.9896 8.37399 46.8394 8.80785 46.539 9.07485C46.2387 9.34184 45.7881 9.47534 45.1874 9.47534H42.3172ZM39.6973 4.0854V16H42.3172V11.3443H44.9371C45.5934 11.3443 46.0662 11.4889 46.3555 11.7782C46.6447 12.0674 46.8338 12.5235 46.9228 13.1465C46.9896 13.6249 47.0396 14.1255 47.073 14.6483C47.1064 15.1712 47.1954 15.6218 47.34 16H49.9599C49.8375 15.8331 49.743 15.6329 49.6762 15.3993C49.6206 15.1545 49.5761 14.8987 49.5427 14.6317C49.5205 14.3647 49.5038 14.1032 49.4926 13.8474C49.4815 13.5915 49.4704 13.369 49.4593 13.1799C49.437 12.8795 49.3925 12.5791 49.3258 12.2788C49.2702 11.9784 49.1756 11.7058 49.0421 11.4611C48.9086 11.2052 48.7362 10.9883 48.5248 10.8103C48.3134 10.6212 48.0464 10.4821 47.7238 10.3931V10.3598C48.3913 10.0928 48.8697 9.70339 49.1589 9.19166C49.4593 8.67992 49.6095 8.07362 49.6095 7.37276C49.6095 6.91665 49.526 6.49391 49.3592 6.10454C49.2034 5.70405 48.9698 5.35362 48.6583 5.05325C48.3579 4.75288 47.9908 4.51926 47.5569 4.35239C47.1342 4.1744 46.6558 4.0854 46.1218 4.0854H39.6973ZM57.2969 10.7602H53.4421C53.4533 10.5934 53.4866 10.4043 53.5423 10.1929C53.609 9.98151 53.7147 9.78127 53.8593 9.59215C54.0151 9.40303 54.2153 9.24728 54.4601 9.12491C54.7159 8.99141 55.033 8.92466 55.4112 8.92466C55.9897 8.92466 56.418 9.08041 56.6961 9.3919C56.9854 9.70339 57.1856 10.1595 57.2969 10.7602ZM53.4421 12.2621H59.6664C59.7109 11.5946 59.6553 10.9549 59.4996 10.3431C59.3438 9.73121 59.088 9.18609 58.732 8.70773C58.3871 8.22937 57.9421 7.85112 57.397 7.57301C56.8519 7.28376 56.2122 7.13914 55.478 7.13914C54.8216 7.13914 54.2209 7.25595 53.6758 7.48957C53.1418 7.72319 52.6801 8.04581 52.2907 8.45742C51.9014 8.85791 51.601 9.33628 51.3896 9.89251C51.1783 10.4488 51.0726 11.0495 51.0726 11.6947C51.0726 12.3622 51.1727 12.9741 51.3729 13.5303C51.5843 14.0865 51.8791 14.5649 52.2574 14.9654C52.6356 15.3659 53.0973 15.6774 53.6424 15.8999C54.1875 16.1112 54.7994 16.2169 55.478 16.2169C56.457 16.2169 57.2913 15.9944 57.981 15.5494C58.6708 15.1045 59.1825 14.3647 59.5163 13.3301H57.4304C57.3525 13.5971 57.1411 13.8529 56.7963 14.0977C56.4514 14.3313 56.0398 14.4481 55.5614 14.4481C54.8939 14.4481 54.3822 14.2757 54.0262 13.9308C53.6702 13.5859 53.4755 13.0297 53.4421 12.2621ZM66.9457 10.4098H69.2652C69.2318 9.85358 69.0983 9.37521 68.8647 8.97472C68.6311 8.56311 68.3251 8.2238 67.9469 7.95681C67.5798 7.67869 67.157 7.47288 66.6787 7.33939C66.2114 7.20589 65.722 7.13914 65.2102 7.13914C64.5094 7.13914 63.8864 7.25595 63.3413 7.48957C62.7961 7.72319 62.3345 8.05137 61.9562 8.47411C61.578 8.88573 61.2887 9.38078 61.0885 9.95926C60.8994 10.5266 60.8048 11.144 60.8048 11.8115C60.8048 12.4568 60.9105 13.0519 61.1219 13.5971C61.3332 14.131 61.628 14.5927 62.0063 14.9821C62.3845 15.3715 62.8406 15.6774 63.3746 15.8999C63.9197 16.1112 64.5149 16.2169 65.1602 16.2169C66.306 16.2169 67.246 15.9166 67.9803 15.3158C68.7145 14.7151 69.1595 13.8418 69.3152 12.696H67.0291C66.9512 13.2299 66.7566 13.6582 66.4451 13.9809C66.1447 14.2924 65.7108 14.4481 65.1435 14.4481C64.7764 14.4481 64.4649 14.3647 64.209 14.1978C63.9531 14.0309 63.7473 13.8195 63.5916 13.5637C63.4469 13.2967 63.3413 13.0019 63.2745 12.6793C63.2078 12.3566 63.1744 12.0396 63.1744 11.7281C63.1744 11.4055 63.2078 11.0829 63.2745 10.7602C63.3413 10.4265 63.4525 10.1261 63.6083 9.85914C63.7751 9.58102 63.9865 9.35853 64.2424 9.19166C64.4982 9.01366 64.8153 8.92466 65.1935 8.92466C66.2059 8.92466 66.7899 9.41971 66.9457 10.4098ZM73.0902 6.03779V4.0854H70.7206V6.03779H73.0902ZM70.7206 7.37276V16H73.0902V7.37276H70.7206ZM79.3114 14.4481C78.9331 14.4481 78.6105 14.3702 78.3435 14.2145C78.0765 14.0587 77.8596 13.8585 77.6927 13.6137C77.537 13.3579 77.4201 13.0631 77.3423 12.7293C77.2755 12.3956 77.2421 12.0563 77.2421 11.7114C77.2421 11.3554 77.2755 11.0106 77.3423 10.6768C77.409 10.3431 77.5203 10.0483 77.676 9.79239C77.8429 9.53652 78.0543 9.33072 78.3101 9.17497C78.5771 9.0081 78.9053 8.92466 79.2947 8.92466C79.6729 8.92466 79.99 9.0081 80.2458 9.17497C80.5128 9.33072 80.7298 9.54209 80.8966 9.80908C81.0635 10.0649 81.1803 10.3598 81.2471 10.6935C81.3249 11.0272 81.3639 11.3665 81.3639 11.7114C81.3639 12.0563 81.3305 12.3956 81.2637 12.7293C81.197 13.0631 81.0802 13.3579 80.9133 13.6137C80.7576 13.8585 80.5462 14.0587 80.2792 14.2145C80.0233 14.3702 79.7007 14.4481 79.3114 14.4481ZM74.956 7.37276V19.0204H77.3256V14.932H77.359C77.6482 15.3548 78.0153 15.6774 78.4603 15.8999C78.9164 16.1112 79.4115 16.2169 79.9455 16.2169C80.5796 16.2169 81.1302 16.0946 81.5975 15.8498C82.0758 15.6051 82.4708 15.2769 82.7823 14.8653C83.1049 14.4537 83.3441 13.9809 83.4998 13.4469C83.6556 12.9129 83.7334 12.3566 83.7334 11.7782C83.7334 11.1663 83.6556 10.5822 83.4998 10.026C83.3441 9.45865 83.1049 8.9636 82.7823 8.54086C82.4597 8.11812 82.0536 7.77881 81.5641 7.52294C81.0746 7.26708 80.4906 7.13914 79.812 7.13914C79.278 7.13914 78.7885 7.24483 78.3435 7.4562C77.8985 7.66757 77.5314 8.00687 77.2421 8.47411H77.2088V7.37276H74.956ZM90.9644 10.7602H87.1097C87.1208 10.5934 87.1542 10.4043 87.2098 10.1929C87.2766 9.98151 87.3823 9.78127 87.5269 9.59215C87.6826 9.40303 87.8829 9.24728 88.1276 9.12491C88.3835 8.99141 88.7005 8.92466 89.0788 8.92466C89.6573 8.92466 90.0856 9.08041 90.3637 9.3919C90.6529 9.70339 90.8532 10.1595 90.9644 10.7602ZM87.1097 12.2621H93.334C93.3785 11.5946 93.3229 10.9549 93.1671 10.3431C93.0114 9.73121 92.7555 9.18609 92.3995 8.70773C92.0547 8.22937 91.6097 7.85112 91.0646 7.57301C90.5194 7.28376 89.8798 7.13914 89.1455 7.13914C88.4892 7.13914 87.8884 7.25595 87.3433 7.48957C86.8093 7.72319 86.3477 8.04581 85.9583 8.45742C85.5689 8.85791 85.2686 9.33628 85.0572 9.89251C84.8458 10.4488 84.7401 11.0495 84.7401 11.6947C84.7401 12.3622 84.8403 12.9741 85.0405 13.5303C85.2519 14.0865 85.5467 14.5649 85.9249 14.9654C86.3032 15.3659 86.7648 15.6774 87.31 15.8999C87.8551 16.1112 88.4669 16.2169 89.1455 16.2169C90.1245 16.2169 90.9589 15.9944 91.6486 15.5494C92.3383 15.1045 92.8501 14.3647 93.1838 13.3301H91.0979C91.0201 13.5971 90.8087 13.8529 90.4638 14.0977C90.119 14.3313 89.7073 14.4481 89.229 14.4481C88.5615 14.4481 88.0498 14.2757 87.6938 13.9308C87.3378 13.5859 87.1431 13.0297 87.1097 12.2621ZM107.577 8.09031H110.114C110.036 7.40057 109.847 6.78871 109.546 6.25472C109.246 5.72074 108.862 5.27575 108.395 4.91975C107.939 4.55264 107.416 4.27452 106.826 4.0854C106.248 3.89628 105.63 3.80172 104.974 3.80172C104.062 3.80172 103.238 3.96303 102.504 4.28564C101.781 4.60826 101.169 5.05325 100.669 5.62061C100.168 6.18797 99.7842 6.85546 99.5172 7.62307C99.2502 8.37955 99.1167 9.20278 99.1167 10.0928C99.1167 10.9605 99.2502 11.7726 99.5172 12.5291C99.7842 13.2744 100.168 13.9252 100.669 14.4815C101.169 15.0377 101.781 15.4771 102.504 15.7998C103.238 16.1112 104.062 16.267 104.974 16.267C105.708 16.267 106.381 16.1557 106.993 15.9333C107.605 15.7108 108.139 15.3881 108.595 14.9654C109.051 14.5427 109.418 14.0309 109.696 13.4302C109.974 12.8294 110.147 12.1564 110.214 11.411H107.677C107.577 12.212 107.299 12.8573 106.843 13.3467C106.398 13.8362 105.775 14.081 104.974 14.081C104.384 14.081 103.884 13.9697 103.472 13.7472C103.06 13.5136 102.727 13.2077 102.471 12.8294C102.215 12.4512 102.026 12.0285 101.903 11.5612C101.792 11.0829 101.737 10.5934 101.737 10.0928C101.737 9.5699 101.792 9.06372 101.903 8.57423C102.026 8.08474 102.215 7.65088 102.471 7.27264C102.727 6.88327 103.06 6.57734 103.472 6.35485C103.884 6.12123 104.384 6.00442 104.974 6.00442C105.297 6.00442 105.602 6.06004 105.892 6.17129C106.192 6.27141 106.459 6.41603 106.693 6.60515C106.926 6.79427 107.121 7.01677 107.277 7.27264C107.432 7.51738 107.533 7.78994 107.577 8.09031ZM111.652 10.026C111.686 9.46977 111.825 9.0081 112.069 8.64098C112.314 8.27386 112.626 7.97906 113.004 7.75656C113.382 7.53407 113.805 7.37832 114.272 7.28932C114.751 7.1892 115.229 7.13914 115.707 7.13914C116.141 7.13914 116.581 7.17251 117.026 7.23926C117.471 7.29489 117.877 7.4117 118.244 7.58969C118.611 7.76769 118.911 8.018 119.145 8.34061C119.378 8.65211 119.495 9.06928 119.495 9.59215V14.081C119.495 14.4703 119.517 14.843 119.562 15.199C119.606 15.555 119.684 15.822 119.796 16H117.393C117.348 15.8665 117.309 15.733 117.276 15.5995C117.254 15.4549 117.237 15.3103 117.226 15.1656C116.848 15.555 116.403 15.8276 115.891 15.9833C115.379 16.1391 114.856 16.2169 114.322 16.2169C113.911 16.2169 113.527 16.1669 113.171 16.0667C112.815 15.9666 112.503 15.8109 112.236 15.5995C111.969 15.3881 111.758 15.1211 111.602 14.7985C111.458 14.4759 111.385 14.0921 111.385 13.6471C111.385 13.1576 111.469 12.7571 111.636 12.4456C111.814 12.123 112.036 11.8672 112.303 11.678C112.581 11.4889 112.893 11.3499 113.238 11.2609C113.594 11.1607 113.95 11.0829 114.306 11.0272C114.662 10.9716 115.012 10.9271 115.357 10.8937C115.702 10.8604 116.008 10.8103 116.275 10.7436C116.542 10.6768 116.753 10.5822 116.909 10.4599C117.064 10.3264 117.137 10.1373 117.126 9.89251C117.126 9.63665 117.081 9.4364 116.992 9.29178C116.914 9.13603 116.803 9.01922 116.658 8.94135C116.525 8.85235 116.364 8.79673 116.174 8.77448C115.996 8.7411 115.802 8.72442 115.59 8.72442C115.123 8.72442 114.756 8.82454 114.489 9.02479C114.222 9.22503 114.066 9.55877 114.022 10.026H111.652ZM117.126 11.7782C117.026 11.8672 116.898 11.9395 116.742 11.9951C116.597 12.0396 116.436 12.0785 116.258 12.1119C116.091 12.1453 115.913 12.1731 115.724 12.1953C115.535 12.2176 115.346 12.2454 115.157 12.2788C114.979 12.3121 114.801 12.3566 114.623 12.4123C114.456 12.4679 114.306 12.5458 114.172 12.6459C114.05 12.7349 113.95 12.8517 113.872 12.9963C113.794 13.1409 113.755 13.3245 113.755 13.547C113.755 13.7584 113.794 13.9364 113.872 14.081C113.95 14.2256 114.055 14.3424 114.189 14.4314C114.322 14.5093 114.478 14.5649 114.656 14.5983C114.834 14.6317 115.018 14.6483 115.207 14.6483C115.674 14.6483 116.035 14.5705 116.291 14.4147C116.547 14.259 116.736 14.0754 116.859 13.864C116.981 13.6416 117.053 13.4191 117.076 13.1966C117.109 12.9741 117.126 12.7961 117.126 12.6626V11.7782ZM121.334 7.37276V16H123.704V12.1119C123.704 11.7225 123.743 11.361 123.821 11.0272C123.899 10.6935 124.027 10.4043 124.205 10.1595C124.394 9.90364 124.639 9.70339 124.939 9.55877C125.239 9.41415 125.606 9.34184 126.04 9.34184C126.185 9.34184 126.335 9.35296 126.491 9.37521C126.647 9.38634 126.78 9.40303 126.891 9.42528V7.22258C126.702 7.16695 126.53 7.13914 126.374 7.13914C126.074 7.13914 125.784 7.18364 125.506 7.27264C125.228 7.36164 124.967 7.48957 124.722 7.65644C124.477 7.81219 124.26 8.00687 124.071 8.24049C123.882 8.46299 123.732 8.70773 123.621 8.97472H123.587V7.37276H121.334ZM133.651 11.6613C133.651 12.0173 133.618 12.3622 133.551 12.696C133.484 13.0297 133.373 13.3301 133.217 13.5971C133.062 13.8529 132.85 14.0587 132.583 14.2145C132.327 14.3702 132.005 14.4481 131.615 14.4481C131.248 14.4481 130.931 14.3702 130.664 14.2145C130.408 14.0476 130.191 13.8362 130.013 13.5804C129.846 13.3134 129.724 13.013 129.646 12.6793C129.568 12.3455 129.529 12.0118 129.529 11.678C129.529 11.322 129.563 10.9827 129.63 10.6601C129.707 10.3264 129.824 10.0316 129.98 9.77571C130.147 9.51984 130.364 9.31403 130.631 9.15828C130.898 9.00254 131.226 8.92466 131.615 8.92466C132.005 8.92466 132.327 9.00254 132.583 9.15828C132.839 9.31403 133.045 9.51984 133.201 9.77571C133.367 10.0204 133.484 10.3097 133.551 10.6434C133.618 10.9661 133.651 11.3054 133.651 11.6613ZM133.684 14.8987V16H135.937V4.0854H133.568V8.42405H133.534C133.267 8.00131 132.9 7.68425 132.433 7.47288C131.977 7.25039 131.493 7.13914 130.981 7.13914C130.347 7.13914 129.791 7.26708 129.312 7.52294C128.834 7.76769 128.434 8.09587 128.111 8.50748C127.8 8.9191 127.56 9.39746 127.393 9.94258C127.238 10.4766 127.16 11.0328 127.16 11.6113C127.16 12.212 127.238 12.7905 127.393 13.3467C127.56 13.903 127.8 14.398 128.111 14.8319C128.434 15.2546 128.84 15.5939 129.329 15.8498C129.819 16.0946 130.386 16.2169 131.031 16.2169C131.599 16.2169 132.105 16.1168 132.55 15.9166C133.006 15.7052 133.373 15.3659 133.651 14.8987H133.684Z" fill="#242628"/>
<path d="M42.3172 27.2634V24.4767H44.7702C45.0038 24.4767 45.2263 24.4989 45.4377 24.5434C45.6602 24.5768 45.8549 24.6436 46.0217 24.7437C46.1886 24.8438 46.3221 24.9829 46.4222 25.1609C46.5223 25.3389 46.5724 25.5669 46.5724 25.845C46.5724 26.3457 46.4222 26.7072 46.1218 26.9297C45.8215 27.1522 45.4377 27.2634 44.9704 27.2634H42.3172ZM39.6973 22.4409V34.3555H45.4711C46.005 34.3555 46.5223 34.2887 47.023 34.1552C47.5347 34.0217 47.9852 33.8159 48.3746 33.5378C48.7751 33.2597 49.0922 32.9037 49.3258 32.4698C49.5594 32.0248 49.6762 31.502 49.6762 30.9012C49.6762 30.1559 49.4926 29.5218 49.1255 28.9989C48.7695 28.4649 48.2244 28.0922 47.4902 27.8809C48.0242 27.625 48.4247 27.2968 48.6917 26.8963C48.9698 26.4958 49.1088 25.9952 49.1088 25.3945C49.1088 24.8382 49.0143 24.371 48.8252 23.9928C48.6472 23.6145 48.3913 23.3142 48.0576 23.0917C47.7238 22.858 47.3233 22.6912 46.8561 22.5911C46.3888 22.4909 45.8715 22.4409 45.3042 22.4409H39.6973ZM42.3172 32.3196V29.049H45.1707C45.738 29.049 46.1942 29.1825 46.539 29.4495C46.8839 29.7053 47.0563 30.1392 47.0563 30.7511C47.0563 31.0625 47.0007 31.3184 46.8895 31.5187C46.7893 31.7189 46.6503 31.8802 46.4723 32.0026C46.2943 32.1138 46.0885 32.1973 45.8549 32.2529C45.6212 32.2974 45.3765 32.3196 45.1206 32.3196H42.3172ZM51.2632 22.4409V34.3555H53.6327V22.4409H51.2632ZM57.6012 30.0502C57.6012 29.7053 57.6345 29.366 57.7013 29.0323C57.768 28.6985 57.8793 28.4037 58.035 28.1479C58.2019 27.892 58.4188 27.6862 58.6858 27.5304C58.9528 27.3636 59.2866 27.2801 59.687 27.2801C60.0875 27.2801 60.4213 27.3636 60.6883 27.5304C60.9664 27.6862 61.1833 27.892 61.3391 28.1479C61.5059 28.4037 61.6227 28.6985 61.6895 29.0323C61.7562 29.366 61.7896 29.7053 61.7896 30.0502C61.7896 30.3951 61.7562 30.7344 61.6895 31.0681C61.6227 31.3907 61.5059 31.6855 61.3391 31.9525C61.1833 32.2084 60.9664 32.4142 60.6883 32.5699C60.4213 32.7257 60.0875 32.8036 59.687 32.8036C59.2866 32.8036 58.9528 32.7257 58.6858 32.5699C58.4188 32.4142 58.2019 32.2084 58.035 31.9525C57.8793 31.6855 57.768 31.3907 57.7013 31.0681C57.6345 30.7344 57.6012 30.3951 57.6012 30.0502ZM55.2316 30.0502C55.2316 30.7399 55.3373 31.3629 55.5486 31.9191C55.76 32.4754 56.0604 32.9538 56.4497 33.3542C56.8391 33.7436 57.3063 34.044 57.8515 34.2553C58.3966 34.4667 59.0084 34.5724 59.687 34.5724C60.3657 34.5724 60.9775 34.4667 61.5226 34.2553C62.0789 34.044 62.5517 33.7436 62.941 33.3542C63.3304 32.9538 63.6308 32.4754 63.8421 31.9191C64.0535 31.3629 64.1592 30.7399 64.1592 30.0502C64.1592 29.3605 64.0535 28.7375 63.8421 28.1812C63.6308 27.6139 63.3304 27.1355 62.941 26.7461C62.5517 26.3457 62.0789 26.0397 61.5226 25.8284C60.9775 25.6059 60.3657 25.4946 59.687 25.4946C59.0084 25.4946 58.3966 25.6059 57.8515 25.8284C57.3063 26.0397 56.8391 26.3457 56.4497 26.7461C56.0604 27.1355 55.76 27.6139 55.5486 28.1812C55.3373 28.7375 55.2316 29.3605 55.2316 30.0502ZM71.5737 28.7653H73.8933C73.8599 28.209 73.7264 27.7307 73.4928 27.3302C73.2591 26.9186 72.9532 26.5793 72.575 26.3123C72.2079 26.0342 71.7851 25.8284 71.3068 25.6949C70.8395 25.5614 70.35 25.4946 69.8383 25.4946C69.1374 25.4946 68.5144 25.6114 67.9693 25.845C67.4242 26.0787 66.9625 26.4068 66.5843 26.8296C66.2061 27.2412 65.9168 27.7362 65.7166 28.3147C65.5274 28.8821 65.4329 29.4995 65.4329 30.167C65.4329 30.8122 65.5386 31.4074 65.7499 31.9525C65.9613 32.4865 66.2561 32.9482 66.6344 33.3376C67.0126 33.7269 67.4687 34.0329 68.0027 34.2553C68.5478 34.4667 69.143 34.5724 69.7882 34.5724C70.9341 34.5724 71.8741 34.272 72.6083 33.6713C73.3426 33.0706 73.7876 32.1973 73.9433 31.0514H71.6572C71.5793 31.5854 71.3846 32.0137 71.0731 32.3363C70.7728 32.6478 70.3389 32.8036 69.7715 32.8036C69.4044 32.8036 69.0929 32.7201 68.8371 32.5533C68.5812 32.3864 68.3754 32.175 68.2196 31.9191C68.075 31.6522 67.9693 31.3574 67.9026 31.0347C67.8358 30.7121 67.8025 30.3951 67.8025 30.0836C67.8025 29.7609 67.8358 29.4383 67.9026 29.1157C67.9693 28.782 68.0806 28.4816 68.2363 28.2146C68.4032 27.9365 68.6146 27.714 68.8704 27.5471C69.1263 27.3691 69.4434 27.2801 69.8216 27.2801C70.8339 27.2801 71.418 27.7752 71.5737 28.7653ZM75.4989 22.4409V34.3555H77.8684V31.3852L78.7862 30.5007L81.1558 34.3555H84.026L80.4049 28.8988L83.6589 25.7282H80.8554L77.8684 28.832V22.4409H75.4989ZM86.6996 31.552H84.4468C84.4691 32.1305 84.597 32.6144 84.8306 33.0038C85.0754 33.3821 85.3813 33.688 85.7484 33.9216C86.1266 34.1552 86.5549 34.3221 87.0333 34.4222C87.5117 34.5223 88.0012 34.5724 88.5018 34.5724C88.9913 34.5724 89.4696 34.5223 89.9369 34.4222C90.4152 34.3332 90.838 34.1719 91.2051 33.9383C91.5722 33.7047 91.867 33.3987 92.0895 33.0205C92.3231 32.6311 92.4399 32.1528 92.4399 31.5854C92.4399 31.1849 92.3621 30.8512 92.2063 30.5842C92.0506 30.3061 91.8448 30.078 91.5889 29.9C91.333 29.7109 91.0382 29.5607 90.7045 29.4495C90.3819 29.3382 90.0481 29.2436 89.7033 29.1658C89.3695 29.0879 89.0413 29.0156 88.7187 28.9488C88.3961 28.8821 88.1069 28.8098 87.851 28.7319C87.6062 28.6429 87.406 28.5317 87.2502 28.3982C87.0945 28.2647 87.0166 28.0922 87.0166 27.8809C87.0166 27.7029 87.0611 27.5638 87.1501 27.4637C87.2391 27.3524 87.3448 27.269 87.4672 27.2134C87.6007 27.1578 87.7453 27.1244 87.901 27.1133C88.0568 27.091 88.2014 27.0799 88.3349 27.0799C88.7576 27.0799 89.1248 27.1633 89.4363 27.3302C89.7478 27.4859 89.9202 27.7919 89.9536 28.248H92.2063C92.1618 27.714 92.0228 27.2746 91.7891 26.9297C91.5666 26.5737 91.283 26.29 90.9381 26.0787C90.5932 25.8673 90.1983 25.7171 89.7533 25.6281C89.3194 25.5391 88.8689 25.4946 88.4017 25.4946C87.9344 25.4946 87.4783 25.5391 87.0333 25.6281C86.5883 25.706 86.1878 25.8506 85.8318 26.062C85.4758 26.2622 85.1866 26.5403 84.9641 26.8963C84.7527 27.2523 84.6471 27.7084 84.6471 28.2647C84.6471 28.6429 84.7249 28.9655 84.8807 29.2325C85.0364 29.4884 85.2422 29.7053 85.4981 29.8833C85.754 30.0502 86.0432 30.1893 86.3658 30.3005C86.6996 30.4006 87.0389 30.4896 87.3837 30.5675C88.2292 30.7455 88.8856 30.9235 89.3528 31.1015C89.8312 31.2795 90.0704 31.5465 90.0704 31.9025C90.0704 32.1138 90.0203 32.2918 89.9202 32.4365C89.8201 32.5699 89.6921 32.6812 89.5364 32.7702C89.3918 32.8481 89.2249 32.9093 89.0358 32.9538C88.8578 32.9871 88.6853 33.0038 88.5185 33.0038C88.2848 33.0038 88.0568 32.976 87.8343 32.9204C87.6229 32.8648 87.4338 32.7813 87.2669 32.6701C87.1001 32.5477 86.961 32.3975 86.8498 32.2195C86.7496 32.0304 86.6996 31.8079 86.6996 31.552Z" fill="#242628"/>
<rect x="96.9509" y="20.0234" width="39.2147" height="18.3558" rx="3.33742" fill="#E1581A"/>
<path d="M104.328 28.6619V25.6265H106.059C106.314 25.6265 106.56 25.6454 106.796 25.6832C107.033 25.721 107.241 25.7967 107.421 25.9102C107.6 26.0142 107.742 26.1655 107.846 26.3641C107.96 26.5626 108.016 26.8227 108.016 27.1442C108.016 27.4657 107.96 27.7257 107.846 27.9243C107.742 28.1229 107.6 28.2789 107.421 28.3924C107.241 28.4964 107.033 28.5673 106.796 28.6051C106.56 28.643 106.314 28.6619 106.059 28.6619H104.328ZM102.102 23.896V34.0234H104.328V30.3923H106.669C107.302 30.3923 107.841 30.3025 108.286 30.1228C108.73 29.9337 109.09 29.6878 109.364 29.3853C109.647 29.0827 109.851 28.7375 109.974 28.3498C110.106 27.9527 110.172 27.5508 110.172 27.1442C110.172 26.7281 110.106 26.3262 109.974 25.9385C109.851 25.5508 109.647 25.2057 109.364 24.9031C109.09 24.6005 108.73 24.3594 108.286 24.1797C107.841 23.9906 107.302 23.896 106.669 23.896H102.102ZM113.789 28.4775V25.6265H116.229C116.739 25.6265 117.122 25.74 117.378 25.9669C117.633 26.1844 117.761 26.539 117.761 27.0307C117.761 27.5413 117.633 27.9101 117.378 28.1371C117.122 28.364 116.739 28.4775 116.229 28.4775H113.789ZM111.562 23.896V34.0234H113.789V30.0661H116.016C116.574 30.0661 116.976 30.189 117.222 30.4349C117.467 30.6807 117.628 31.0684 117.704 31.598C117.761 32.0046 117.803 32.4301 117.832 32.8745C117.86 33.319 117.936 33.7019 118.058 34.0234H120.285C120.181 33.8816 120.101 33.7114 120.044 33.5128C119.997 33.3048 119.959 33.0873 119.931 32.8603C119.912 32.6334 119.898 32.4112 119.888 32.1937C119.879 31.9762 119.869 31.7871 119.86 31.6263C119.841 31.371 119.803 31.1157 119.746 30.8604C119.699 30.6051 119.619 30.3734 119.505 30.1654C119.392 29.9479 119.245 29.7635 119.066 29.6122C118.886 29.4514 118.659 29.3332 118.385 29.2576V29.2292C118.952 29.0023 119.359 28.6713 119.605 28.2363C119.86 27.8014 119.987 27.286 119.987 26.6903C119.987 26.3026 119.917 25.9433 119.775 25.6123C119.642 25.2719 119.444 24.974 119.179 24.7187C118.924 24.4634 118.612 24.2648 118.243 24.123C117.884 23.9717 117.477 23.896 117.023 23.896H111.562ZM123.586 29.0023C123.586 28.5579 123.633 28.1276 123.728 27.7115C123.832 27.2955 123.992 26.9267 124.21 26.6052C124.427 26.2742 124.711 26.0142 125.061 25.8251C125.411 25.6265 125.836 25.5272 126.337 25.5272C126.839 25.5272 127.264 25.6265 127.614 25.8251C127.964 26.0142 128.248 26.2742 128.465 26.6052C128.682 26.9267 128.839 27.2955 128.933 27.7115C129.037 28.1276 129.089 28.5579 129.089 29.0023C129.089 29.4278 129.037 29.8439 128.933 30.2505C128.839 30.6476 128.682 31.007 128.465 31.3285C128.248 31.65 127.964 31.91 127.614 32.1086C127.264 32.2977 126.839 32.3923 126.337 32.3923C125.836 32.3923 125.411 32.2977 125.061 32.1086C124.711 31.91 124.427 31.65 124.21 31.3285C123.992 31.007 123.832 30.6476 123.728 30.2505C123.633 29.8439 123.586 29.4278 123.586 29.0023ZM121.359 29.0023C121.359 29.7399 121.472 30.4301 121.699 31.0732C121.926 31.7067 122.252 32.2599 122.678 32.7327C123.103 33.2055 123.624 33.579 124.238 33.8532C124.862 34.118 125.562 34.2504 126.337 34.2504C127.122 34.2504 127.822 34.118 128.437 33.8532C129.051 33.579 129.571 33.2055 129.997 32.7327C130.422 32.2599 130.749 31.7067 130.976 31.0732C131.203 30.4301 131.316 29.7399 131.316 29.0023C131.316 28.2458 131.203 27.5461 130.976 26.903C130.749 26.2506 130.422 25.6832 129.997 25.201C129.571 24.7187 129.051 24.3405 128.437 24.0662C127.822 23.792 127.122 23.6549 126.337 23.6549C125.562 23.6549 124.862 23.792 124.238 24.0662C123.624 24.3405 123.103 24.7187 122.678 25.201C122.252 25.6832 121.926 26.2506 121.699 26.903C121.472 27.5461 121.359 28.2458 121.359 29.0023Z" fill="white"/>
</svg>