<svg width="28" height="28" viewBox="0 0 28 28" fill="none" xmlns="http://www.w3.org/2000/svg">
<path d="M14 21.5C14.425 21.5 14.7813 21.3563 15.0688 21.0688C15.3563 20.7812 15.5 20.425 15.5 20C15.5 19.575 15.3563 19.2188 15.0688 18.9313C14.7813 18.6438 14.425 18.5 14 18.5C13.575 18.5 13.2188 18.6438 12.9313 18.9313C12.6438 19.2188 12.5 19.575 12.5 20C12.5 20.425 12.6438 20.7812 12.9313 21.0688C13.2188 21.3563 13.575 21.5 14 21.5ZM12.5 15.5H15.5V6.5H12.5V15.5ZM8.375 27.5L0.5 19.625V8.375L8.375 0.5H19.625L27.5 8.375V19.625L19.625 27.5H8.375ZM9.65 24.5H18.35L24.5 18.35V9.65L18.35 3.5H9.65L3.5 9.65V18.35L9.65 24.5Z" fill="#E1581A"/>
</svg>
