<svg width="16" height="16" viewBox="0 0 16 16" fill="none" xmlns="http://www.w3.org/2000/svg">
<g clip-path="url(#clip0_0_75)">
<path d="M7.65693 6.24724C7.76693 5.91724 8.23293 5.91724 8.34293 6.24724L8.98793 8.18424C9.1299 8.61004 9.3691 8.99693 9.68657 9.31422C10.004 9.63152 10.3911 9.8705 10.8169 10.0122L12.7529 10.6572C13.0829 10.7672 13.0829 11.2332 12.7529 11.3432L10.8159 11.9882C10.3901 12.1302 10.0033 12.3694 9.68595 12.6869C9.36866 13.0044 9.12967 13.3914 8.98793 13.8172L8.34293 15.7532C8.31922 15.8255 8.27329 15.8884 8.21169 15.933C8.1501 15.9777 8.07599 16.0017 7.99993 16.0017C7.92388 16.0017 7.84977 15.9777 7.78817 15.933C7.72658 15.8884 7.68065 15.8255 7.65693 15.7532L7.01193 13.8162C6.87006 13.3905 6.63101 13.0037 6.31373 12.6865C5.99644 12.3692 5.60963 12.1301 5.18393 11.9882L3.24693 11.3432C3.17467 11.3195 3.11175 11.2736 3.06713 11.212C3.02252 11.1504 2.9985 11.0763 2.9985 11.0002C2.9985 10.9242 3.02252 10.8501 3.06713 10.7885C3.11175 10.7269 3.17467 10.681 3.24693 10.6572L5.18393 10.0122C5.60963 9.87037 5.99644 9.63132 6.31373 9.31404C6.63101 8.99675 6.87006 8.60994 7.01193 8.18424L7.65693 6.24724ZM3.79393 1.14824C3.80827 1.10494 3.8359 1.06725 3.87288 1.04054C3.90986 1.01383 3.95431 0.999455 3.99993 0.999455C4.04555 0.999455 4.09001 1.01383 4.12699 1.04054C4.16397 1.06725 4.19159 1.10494 4.20593 1.14824L4.59293 2.31024C4.76593 2.82824 5.17193 3.23424 5.68993 3.40724L6.85193 3.79424C6.89524 3.80858 6.93292 3.83621 6.95963 3.87319C6.98634 3.91017 7.00072 3.95462 7.00072 4.00024C7.00072 4.04586 6.98634 4.09032 6.95963 4.1273C6.93292 4.16428 6.89524 4.1919 6.85193 4.20624L5.68993 4.59324C5.43431 4.67808 5.20202 4.82143 5.01157 5.01188C4.82112 5.20233 4.67777 5.43462 4.59293 5.69024L4.20593 6.85224C4.19159 6.89555 4.16397 6.93323 4.12699 6.95994C4.09001 6.98665 4.04555 7.00103 3.99993 7.00103C3.95431 7.00103 3.90986 6.98665 3.87288 6.95994C3.8359 6.93323 3.80827 6.89555 3.79393 6.85224L3.40693 5.69024C3.32209 5.43462 3.17874 5.20233 2.98829 5.01188C2.79784 4.82143 2.56556 4.67808 2.30993 4.59324L1.14793 4.20624C1.10463 4.1919 1.06694 4.16428 1.04023 4.1273C1.01352 4.09032 0.999146 4.04586 0.999146 4.00024C0.999146 3.95462 1.01352 3.91017 1.04023 3.87319C1.06694 3.83621 1.10463 3.80858 1.14793 3.79424L2.30993 3.40724C2.56556 3.3224 2.79784 3.17905 2.98829 2.9886C3.17874 2.79815 3.32209 2.56587 3.40693 2.31024L3.79393 1.14824ZM10.8629 0.0992422C10.8728 0.0707684 10.8913 0.0460781 10.9159 0.0286037C10.9404 0.0111294 10.9698 0.0017395 10.9999 0.0017395C11.0301 0.0017395 11.0595 0.0111294 11.084 0.0286037C11.1086 0.0460781 11.1271 0.0707684 11.1369 0.0992422L11.3949 0.873242C11.5099 1.21924 11.7809 1.49024 12.1269 1.60524L12.9009 1.86324C12.9294 1.87311 12.9541 1.89161 12.9716 1.91617C12.989 1.94072 12.9984 1.97011 12.9984 2.00024C12.9984 2.03038 12.989 2.05977 12.9716 2.08432C12.9541 2.10887 12.9294 2.12737 12.9009 2.13724L12.1269 2.39524C11.9566 2.45224 11.8018 2.54803 11.6747 2.67506C11.5477 2.80209 11.4519 2.95688 11.3949 3.12724L11.1369 3.90124C11.1271 3.92972 11.1086 3.95441 11.084 3.97188C11.0595 3.98936 11.0301 3.99875 10.9999 3.99875C10.9698 3.99875 10.9404 3.98936 10.9159 3.97188C10.8913 3.95441 10.8728 3.92972 10.8629 3.90124L10.6049 3.12724C10.5479 2.95688 10.4521 2.80209 10.3251 2.67506C10.1981 2.54803 10.0433 2.45224 9.87293 2.39524L9.09993 2.13724C9.07146 2.12737 9.04677 2.10887 9.02929 2.08432C9.01182 2.05977 9.00243 2.03038 9.00243 2.00024C9.00243 1.97011 9.01182 1.94072 9.02929 1.91617C9.04677 1.89161 9.07146 1.87311 9.09993 1.86324L9.87393 1.60524C10.2199 1.49024 10.4909 1.21924 10.6059 0.873242L10.8629 0.0992422Z" fill="#E1581A"/>
</g>
<defs>
<clipPath id="clip0_0_75">
<rect width="16" height="16" fill="white"/>
</clipPath>
</defs>
</svg>
