<svg width="12" height="16" viewBox="0 0 12 16" fill="none" xmlns="http://www.w3.org/2000/svg">
<path d="M6.65693 6.24724C6.76693 5.91724 7.23293 5.91724 7.34293 6.24724L7.98793 8.18424C8.1299 8.61004 8.3691 8.99693 8.68657 9.31422C9.00404 9.63152 9.39105 9.8705 9.81693 10.0122L11.7529 10.6572C12.0829 10.7672 12.0829 11.2332 11.7529 11.3432L9.81593 11.9882C9.39013 12.1302 9.00325 12.3694 8.68595 12.6869C8.36866 13.0044 8.12967 13.3914 7.98793 13.8172L7.34293 15.7532C7.31922 15.8255 7.27329 15.8884 7.21169 15.933C7.1501 15.9777 7.07599 16.0017 6.99993 16.0017C6.92388 16.0017 6.84977 15.9777 6.78817 15.933C6.72658 15.8884 6.68065 15.8255 6.65693 15.7532L6.01193 13.8162C5.87006 13.3905 5.63101 13.0037 5.31373 12.6865C4.99644 12.3692 4.60963 12.1301 4.18393 11.9882L2.24693 11.3432C2.17467 11.3195 2.11175 11.2736 2.06713 11.212C2.02252 11.1504 1.9985 11.0763 1.9985 11.0002C1.9985 10.9242 2.02252 10.8501 2.06713 10.7885C2.11175 10.7269 2.17467 10.681 2.24693 10.6572L4.18393 10.0122C4.60963 9.87037 4.99644 9.63132 5.31373 9.31404C5.63101 8.99675 5.87006 8.60994 6.01193 8.18424L6.65693 6.24724ZM2.79393 1.14824C2.80827 1.10494 2.8359 1.06725 2.87288 1.04054C2.90986 1.01383 2.95431 0.999455 2.99993 0.999455C3.04555 0.999455 3.09001 1.01383 3.12699 1.04054C3.16397 1.06725 3.19159 1.10494 3.20593 1.14824L3.59293 2.31024C3.76593 2.82824 4.17193 3.23424 4.68993 3.40724L5.85193 3.79424C5.89524 3.80858 5.93292 3.83621 5.95963 3.87319C5.98634 3.91017 6.00072 3.95462 6.00072 4.00024C6.00072 4.04586 5.98634 4.09032 5.95963 4.1273C5.93292 4.16428 5.89524 4.1919 5.85193 4.20624L4.68993 4.59324C4.43431 4.67808 4.20202 4.82143 4.01157 5.01188C3.82112 5.20233 3.67777 5.43462 3.59293 5.69024L3.20593 6.85224C3.19159 6.89555 3.16397 6.93323 3.12699 6.95994C3.09001 6.98665 3.04555 7.00103 2.99993 7.00103C2.95431 7.00103 2.90986 6.98665 2.87288 6.95994C2.8359 6.93323 2.80827 6.89555 2.79393 6.85224L2.40693 5.69024C2.32209 5.43462 2.17874 5.20233 1.98829 5.01188C1.79784 4.82143 1.56556 4.67808 1.30993 4.59324L0.147933 4.20624C0.104627 4.1919 0.0669419 4.16428 0.0402319 4.1273C0.0135219 4.09032 -0.000854492 4.04586 -0.000854492 4.00024C-0.000854492 3.95462 0.0135219 3.91017 0.0402319 3.87319C0.0669419 3.83621 0.104627 3.80858 0.147933 3.79424L1.30993 3.40724C1.56556 3.3224 1.79784 3.17905 1.98829 2.9886C2.17874 2.79815 2.32209 2.56587 2.40693 2.31024L2.79393 1.14824ZM9.86293 0.0992422C9.8728 0.0707684 9.8913 0.0460781 9.91585 0.0286037C9.94041 0.0111294 9.9698 0.0017395 9.99993 0.0017395C10.0301 0.0017395 10.0595 0.0111294 10.084 0.0286037C10.1086 0.0460781 10.1271 0.0707684 10.1369 0.0992422L10.3949 0.873242C10.5099 1.21924 10.7809 1.49024 11.1269 1.60524L11.9009 1.86324C11.9294 1.87311 11.9541 1.89161 11.9716 1.91617C11.989 1.94072 11.9984 1.97011 11.9984 2.00024C11.9984 2.03038 11.989 2.05977 11.9716 2.08432C11.9541 2.10887 11.9294 2.12737 11.9009 2.13724L11.1269 2.39524C10.9566 2.45224 10.8018 2.54803 10.6747 2.67506C10.5477 2.80209 10.4519 2.95688 10.3949 3.12724L10.1369 3.90124C10.1271 3.92972 10.1086 3.95441 10.084 3.97188C10.0595 3.98936 10.0301 3.99875 9.99993 3.99875C9.9698 3.99875 9.94041 3.98936 9.91585 3.97188C9.8913 3.95441 9.8728 3.92972 9.86293 3.90124L9.60493 3.12724C9.54793 2.95688 9.45214 2.80209 9.32512 2.67506C9.19809 2.54803 9.04329 2.45224 8.87293 2.39524L8.09993 2.13724C8.07146 2.12737 8.04677 2.10887 8.02929 2.08432C8.01182 2.05977 8.00243 2.03038 8.00243 2.00024C8.00243 1.97011 8.01182 1.94072 8.02929 1.91617C8.04677 1.89161 8.07146 1.87311 8.09993 1.86324L8.87393 1.60524C9.21993 1.49024 9.49093 1.21924 9.60593 0.873242L9.86293 0.0992422Z" fill="#E1581A"/>
</svg>
