<svg width="48" height="48" viewBox="0 0 48 48" fill="none" xmlns="http://www.w3.org/2000/svg">
<rect width="48" height="48" rx="4" fill="#FFE7D4"/>
<path d="M25.5 30H16.5C16.1022 30 15.7207 30.158 15.4394 30.4393C15.158 30.7206 15 31.1022 15 31.5C15 31.8978 15.158 32.2793 15.4394 32.5606C15.7207 32.8419 16.1022 33 16.5 33H25.5C25.8978 33 26.2794 32.8419 26.5607 32.5606C26.842 32.2793 27 31.8978 27 31.5C27 31.1022 26.842 30.7206 26.5607 30.4393C26.2794 30.158 25.8978 30 25.5 30ZM19.5 21H22.5C22.8978 21 23.2794 20.8419 23.5607 20.5606C23.842 20.2793 24 19.8978 24 19.5C24 19.1022 23.842 18.7206 23.5607 18.4393C23.2794 18.158 22.8978 18 22.5 18H19.5C19.1022 18 18.7207 18.158 18.4394 18.4393C18.158 18.7206 18 19.1022 18 19.5C18 19.8978 18.158 20.2793 18.4394 20.5606C18.7207 20.8419 19.1022 21 19.5 21ZM37.5 24H33V10.5C33.0011 10.2357 32.9322 9.97577 32.8005 9.7466C32.6688 9.51743 32.4789 9.32714 32.25 9.19498C32.022 9.06333 31.7633 8.99402 31.5 8.99402C31.2367 8.99402 30.978 9.06333 30.75 9.19498L26.25 11.775L21.75 9.19498C21.522 9.06333 21.2633 8.99402 21 8.99402C20.7367 8.99402 20.478 9.06333 20.25 9.19498L15.75 11.775L11.25 9.19498C11.022 9.06333 10.7633 8.99402 10.5 8.99402C10.2367 8.99402 9.97804 9.06333 9.75001 9.19498C9.52111 9.32714 9.33118 9.51743 9.19948 9.7466C9.06777 9.97577 8.99896 10.2357 9.00001 10.5V34.5C9.00001 35.6935 9.47412 36.838 10.318 37.682C11.1619 38.5259 12.3065 39 13.5 39H34.5C35.6935 39 36.8381 38.5259 37.682 37.682C38.5259 36.838 39 35.6935 39 34.5V25.5C39 25.1022 38.842 24.7206 38.5607 24.4393C38.2794 24.158 37.8978 24 37.5 24ZM13.5 36C13.1022 36 12.7207 35.8419 12.4394 35.5606C12.158 35.2793 12 34.8978 12 34.5V13.095L15 14.805C15.2315 14.9259 15.4888 14.989 15.75 14.989C16.0112 14.989 16.2685 14.9259 16.5 14.805L21 12.225L25.5 14.805C25.7315 14.9259 25.9888 14.989 26.25 14.989C26.5112 14.989 26.7685 14.9259 27 14.805L30 13.095V34.5C30.0041 35.0117 30.0954 35.519 30.27 36H13.5ZM36 34.5C36 34.8978 35.842 35.2793 35.5607 35.5606C35.2794 35.8419 34.8978 36 34.5 36C34.1022 36 33.7207 35.8419 33.4394 35.5606C33.158 35.2793 33 34.8978 33 34.5V27H36V34.5ZM25.5 24H16.5C16.1022 24 15.7207 24.158 15.4394 24.4393C15.158 24.7206 15 25.1022 15 25.5C15 25.8978 15.158 26.2793 15.4394 26.5606C15.7207 26.8419 16.1022 27 16.5 27H25.5C25.8978 27 26.2794 26.8419 26.5607 26.5606C26.842 26.2793 27 25.8978 27 25.5C27 25.1022 26.842 24.7206 26.5607 24.4393C26.2794 24.158 25.8978 24 25.5 24Z" fill="#E1581A"/>
</svg>
