<svg width="48" height="48" viewBox="0 0 48 48" fill="none" xmlns="http://www.w3.org/2000/svg">
<rect width="48" height="48" rx="4" fill="#FFE7D4"/>
<path fill-rule="evenodd" clip-rule="evenodd" d="M28.995 31.4885C34.5641 31.23 38.9999 26.633 38.9999 21C38.9999 15.201 34.2989 10.5 28.4999 10.5C24.3068 10.5 20.6877 12.9579 19.0049 16.5115C19.0459 16.5096 19.087 16.5079 19.1281 16.5065C13.5013 16.7023 9 21.3255 9 27C9 32.799 13.701 37.5 19.5 37.5C23.6931 37.5 27.3121 35.0421 28.995 31.4885ZM29.9118 28.3673C33.3789 27.7068 35.9999 24.6595 35.9999 21C35.9999 16.8579 32.642 13.5 28.4999 13.5C25.8871 13.5 23.5865 14.836 22.2437 16.8621C26.7121 18.0685 30 22.1503 30 27C30 27.4634 29.97 27.9198 29.9118 28.3673ZM19.6775 16.5015C19.6184 16.5005 19.5592 16.5 19.4999 16.5L19.6775 16.5015ZM18.7606 27.904L19.3249 26.2697C19.4212 25.9912 19.8289 25.9912 19.9251 26.2697L20.4894 27.904C20.6137 28.2633 20.8229 28.5897 21.1007 28.8574C21.3784 29.1252 21.717 29.3268 22.0896 29.4464L23.7835 29.9906C24.0722 30.0834 24.0722 30.4766 23.7835 30.5694L22.0888 31.1137C21.7162 31.2334 21.3777 31.4353 21.1001 31.7031C20.8225 31.971 20.6134 32.2975 20.4894 32.6569L19.9251 34.2904C19.9044 34.3514 19.8642 34.4044 19.8103 34.4421C19.7564 34.4797 19.6916 34.5 19.625 34.5C19.5585 34.5 19.4937 34.4797 19.4398 34.4421C19.3859 34.4044 19.3457 34.3514 19.3249 34.2904L18.7606 32.656C18.6365 32.2969 18.4274 31.9705 18.1498 31.7028C17.8722 31.4351 17.5337 31.2334 17.1613 31.1137L15.4666 30.5694C15.4034 30.5494 15.3483 30.5107 15.3093 30.4587C15.2703 30.4067 15.2492 30.3442 15.2492 30.28C15.2492 30.2159 15.2703 30.1533 15.3093 30.1014C15.3483 30.0494 15.4034 30.0106 15.4666 29.9906L17.1613 29.4464C17.5337 29.3267 17.8722 29.125 18.1498 28.8573C18.4274 28.5896 18.6365 28.2632 18.7606 27.904ZM15.9452 21.9674C15.9577 21.9308 15.9819 21.899 16.0142 21.8765C16.0466 21.854 16.0855 21.8418 16.1254 21.8418C16.1653 21.8418 16.2042 21.854 16.2366 21.8765C16.2689 21.899 16.2931 21.9308 16.3056 21.9674L16.6442 22.9478C16.7956 23.3849 17.1508 23.7274 17.604 23.8734L18.6206 24.1999C18.6585 24.212 18.6915 24.2353 18.7149 24.2665C18.7382 24.2977 18.7508 24.3353 18.7508 24.3737C18.7508 24.4122 18.7382 24.4498 18.7149 24.481C18.6915 24.5122 18.6585 24.5355 18.6206 24.5476L17.604 24.8741C17.3804 24.9457 17.1771 25.0666 17.0105 25.2273C16.8439 25.388 16.7185 25.584 16.6442 25.7997L16.3056 26.7801C16.2931 26.8167 16.2689 26.8485 16.2366 26.871C16.2042 26.8935 16.1653 26.9057 16.1254 26.9057C16.0855 26.9057 16.0466 26.8935 16.0142 26.871C15.9819 26.8485 15.9577 26.8167 15.9452 26.7801L15.6066 25.7997C15.5324 25.584 15.4069 25.388 15.2403 25.2273C15.0737 25.0666 14.8705 24.9457 14.6468 24.8741L13.6302 24.5476C13.5923 24.5355 13.5593 24.5122 13.5359 24.481C13.5126 24.4498 13.5 24.4122 13.5 24.3737C13.5 24.3353 13.5126 24.2977 13.5359 24.2665C13.5593 24.2353 13.5923 24.212 13.6302 24.1999L14.6468 23.8734C14.8705 23.8018 15.0737 23.6809 15.2403 23.5202C15.4069 23.3595 15.5324 23.1635 15.6066 22.9478L15.9452 21.9674ZM22.1299 21.0823C22.1385 21.0582 22.1547 21.0374 22.1762 21.0227C22.1977 21.0079 22.2234 21 22.2497 21C22.2761 21 22.3018 21.0079 22.3233 21.0227C22.3448 21.0374 22.361 21.0582 22.3696 21.0823L22.5953 21.7353C22.696 22.0273 22.9331 22.2559 23.2358 22.353L23.9129 22.5707C23.9379 22.579 23.9595 22.5946 23.9747 22.6153C23.99 22.636 23.9983 22.6608 23.9983 22.6862C23.9983 22.7117 23.99 22.7365 23.9747 22.7572C23.9595 22.7779 23.9379 22.7935 23.9129 22.8018L23.2358 23.0195C23.0867 23.0676 22.9513 23.1484 22.8401 23.2556C22.729 23.3628 22.6452 23.4934 22.5953 23.6372L22.3696 24.2902C22.361 24.3142 22.3448 24.3351 22.3233 24.3498C22.3018 24.3646 22.2761 24.3725 22.2497 24.3725C22.2234 24.3725 22.1977 24.3646 22.1762 24.3498C22.1547 24.3351 22.1385 24.3142 22.1299 24.2902L21.9042 23.6372C21.8543 23.4934 21.7705 23.3628 21.6593 23.2556C21.5482 23.1484 21.4128 23.0676 21.2637 23.0195L20.5874 22.8018C20.5625 22.7935 20.5409 22.7779 20.5256 22.7572C20.5103 22.7365 20.5021 22.7117 20.5021 22.6862C20.5021 22.6608 20.5103 22.636 20.5256 22.6153C20.5409 22.5946 20.5625 22.579 20.5874 22.5707L21.2646 22.353C21.5673 22.2559 21.8044 22.0273 21.905 21.7353L22.1299 21.0823Z" fill="#E1581A"/>
</svg>
