<svg width="48" height="48" viewBox="0 0 48 48" fill="none" xmlns="http://www.w3.org/2000/svg">
<g clip-path="url(#clip0_1_775)">
<circle cx="24" cy="24" r="24" fill="#E1581A"/>
<path fill-rule="evenodd" clip-rule="evenodd" d="M24.2493 9.59998C21.2451 9.59998 18.5867 11.3146 17.1796 14.0383C13.4456 14.0699 10.56 17.344 10.56 21.2948C10.56 24.1117 12.069 26.6427 14.3768 27.8285V36.614C14.3768 37.52 15.0604 38.304 15.9648 38.304H32.0424C32.9468 38.304 33.6304 37.52 33.6304 36.614V25.6379C35.9332 24.4475 37.44 21.9183 37.44 19.1075C37.44 15.1371 34.456 11.8543 30.7264 11.8543C30.3933 11.8543 30.0606 11.8819 29.7306 11.936C28.2536 10.4442 26.3046 9.59998 24.2493 9.59998ZM19.6429 16.4117C20.3734 14.3133 22.1868 12.98 24.2493 12.98C25.7017 12.98 27.0205 13.6455 27.9688 14.8742C28.3774 15.4031 29.0566 15.6259 29.6818 15.4103C30.0247 15.293 30.3767 15.2343 30.7264 15.2343C32.6492 15.2343 34.2639 16.9435 34.2639 19.1075C34.2639 20.8781 33.1634 22.4019 31.6287 22.8416C30.9201 23.045 30.4543 23.7261 30.4543 24.4734V28.9923H17.5529V26.6607C17.5529 25.912 17.0857 25.2291 16.3736 25.0273C14.8388 24.5925 13.7361 23.0694 13.7361 21.2948C13.7361 19.1643 15.3735 17.4178 17.2343 17.4178C17.4378 17.4178 17.643 17.4396 17.8447 17.4821L17.8454 17.4822C18.6247 17.6449 19.3784 17.1722 19.6429 16.4117ZM17.5529 34.924V32.3723H30.4543V34.924H17.5529Z" fill="white"/>
</g>
<defs>
<clipPath id="clip0_1_775">
<rect width="48" height="48" fill="white"/>
</clipPath>
</defs>
</svg>
