<svg width="48" height="48" viewBox="0 0 48 48" fill="none" xmlns="http://www.w3.org/2000/svg">
<circle cx="24" cy="24" r="24" fill="#FFE7D4"/>
<path d="M28.9467 24.9466C30.2539 23.9182 31.208 22.5079 31.6763 20.9119C32.1446 19.3159 32.1039 17.6136 31.5597 16.0419C31.0155 14.4702 29.995 13.1072 28.6401 12.1424C27.2852 11.1777 25.6633 10.6593 24 10.6593C22.3367 10.6593 20.7148 11.1777 19.3599 12.1424C18.005 13.1072 16.9845 14.4702 16.4403 16.0419C15.8961 17.6136 15.8553 19.3159 16.3237 20.9119C16.792 22.5079 17.7461 23.9182 19.0533 24.9466C16.8134 25.844 14.859 27.3324 13.3985 29.2532C11.938 31.1739 11.0261 33.455 10.76 35.8533C10.7407 36.0284 10.7562 36.2056 10.8054 36.3747C10.8546 36.5438 10.9366 36.7016 11.0468 36.8391C11.2694 37.1166 11.593 37.2944 11.9467 37.3333C12.3003 37.3722 12.6549 37.269 12.9324 37.0465C13.21 36.8239 13.3878 36.5003 13.4267 36.1466C13.7194 33.5402 14.9622 31.133 16.9176 29.385C18.873 27.637 21.4039 26.6707 24.0267 26.6707C26.6495 26.6707 29.1803 27.637 31.1357 29.385C33.0911 31.133 34.3339 33.5402 34.6267 36.1466C34.6629 36.4743 34.8192 36.7768 35.0655 36.996C35.3117 37.2151 35.6304 37.3353 35.96 37.3333H36.1067C36.4562 37.2931 36.7756 37.1164 36.9954 36.8416C37.2152 36.5669 37.3175 36.2164 37.28 35.8666C37.0127 33.4616 36.0958 31.1746 34.6278 29.2509C33.1598 27.3272 31.1959 25.8393 28.9467 24.9466ZM24 24C22.9452 24 21.914 23.6872 21.037 23.1011C20.1599 22.5151 19.4763 21.6821 19.0726 20.7076C18.669 19.7331 18.5634 18.6607 18.7691 17.6261C18.9749 16.5916 19.4829 15.6413 20.2288 14.8954C20.9746 14.1495 21.9249 13.6416 22.9595 13.4358C23.9941 13.23 25.0664 13.3356 26.041 13.7393C27.0155 14.1429 27.8485 14.8265 28.4345 15.7036C29.0205 16.5807 29.3333 17.6118 29.3333 18.6666C29.3333 20.0811 28.7714 21.4377 27.7712 22.4379C26.771 23.4381 25.4145 24 24 24Z" fill="#EAAB90"/>
</svg>
