<?xml version="1.0" encoding="iso-8859-1"?>
<!-- Generator: Adobe Illustrator 19.0.0, SVG Export Plug-In . SVG Version: 6.00 Build 0)  -->
<svg version="1.1" id="Capa_1" xmlns="http://www.w3.org/2000/svg" xmlns:xlink="http://www.w3.org/1999/xlink" x="0px" y="0px"
	 viewBox="0 0 512 512" style="enable-background:new 0 0 512 512;" xml:space="preserve">
<g>
	<g>
		<path d="M0,222.8v81.401c0,8.284,6.716,15,15,15h81.4V222.8H0z"/>
	</g>
</g>
<g>
	<g>
		<path d="M415.6,222.8v96.401H497c8.285,0,15-6.716,15-15V222.8H415.6z"/>
	</g>
</g>
<g>
	<g>
		<polygon points="222.801,222.8 222.801,319.201 254.934,319.201 289.201,319.201 289.201,222.8 		"/>
	</g>
</g>
<g>
	<g>
		<rect x="126.4" y="222.8" width="66.4" height="96.4"/>
	</g>
</g>
<g>
	<g>
		<polygon points="485.678,126.4 26.322,126.4 4.189,192.8 507.81,192.8 		"/>
	</g>
</g>
<g>
	<g>
		<path d="M449.867,349.201V400.6H254.934v-51.398h-222.8V497c0,8.284,6.716,15,15,15h417.733c8.283,0,15-6.716,15-15V349.201
			H449.867z M449.868,482h-0.001H254.934v-51.4h194.934V482z"/>
	</g>
</g>
<g>
	<g>
		<path d="M464.867,0H47.134c-8.284,0-15,6.716-15,15v81.4h447.733V15C479.867,6.716,473.15,0,464.867,0z"/>
	</g>
</g>
<g>
	<g>
		<rect x="319.2" y="222.8" width="66.4" height="96.4"/>
	</g>
</g>
<g>
</g>
<g>
</g>
<g>
</g>
<g>
</g>
<g>
</g>
<g>
</g>
<g>
</g>
<g>
</g>
<g>
</g>
<g>
</g>
<g>
</g>
<g>
</g>
<g>
</g>
<g>
</g>
<g>
</g>
</svg>
