<?xml version="1.0" encoding="iso-8859-1"?>
<!-- Generator: Adobe Illustrator 19.0.0, SVG Export Plug-In . SVG Version: 6.00 Build 0)  -->
<svg version="1.1" id="Capa_1" xmlns="http://www.w3.org/2000/svg" xmlns:xlink="http://www.w3.org/1999/xlink" x="0px" y="0px"
	 viewBox="0 0 512 512" style="enable-background:new 0 0 512 512;" xml:space="preserve">
<g>
	<g>
		<path d="M419.079,71.914h-69.164c27.546,0,52.231,12.488,68.689,32.101c13.076,15.582,20.96,35.661,20.96,57.548
			c0.001,23.946-9.324,46.459-26.257,63.392c-13.085,13.084-29.505,21.626-47.342,24.832v190.299h53.113
			c11.843,0,21.443-9.6,21.443-21.443V255.259C481.458,245.553,512,208.695,512,164.834C512,113.598,470.316,71.914,419.079,71.914z
			"/>
	</g>
</g>
<g>
	<g>
		<path d="M351.935,104.016H57.546C25.815,104.016,0,129.831,0,161.562c0.002,31.73,25.818,57.546,57.546,57.546
			c8.865,0,16.055,7.187,16.055,16.051V439.9h262.283V235.159c0-4.257,1.691-8.34,4.701-11.35c3.01-3.01,7.092-4.701,11.349-4.701
			c0,0,0,0,0.001,0c15.371,0.001,29.823-5.984,40.692-16.854c10.869-10.869,16.855-25.32,16.854-40.692
			C409.482,129.831,383.666,104.016,351.935,104.016z M171.928,305.383c-2.985,2.996-7.127,4.708-11.343,4.708
			c-4.227,0-8.368-1.712-11.353-4.708c-2.985-2.985-4.697-7.116-4.697-11.343c0-4.227,1.712-8.368,4.697-11.353
			c2.986-2.985,7.126-4.697,11.353-4.697s8.357,1.712,11.343,4.697c2.996,2.985,4.708,7.126,4.708,11.353
			C176.637,298.256,174.924,302.397,171.928,305.383z M279.931,378.982c-2.985,2.985-7.116,4.708-11.343,4.708
			s-8.368-1.722-11.353-4.708c-2.985-2.985-4.697-7.127-4.697-11.353c0-4.216,1.712-8.357,4.697-11.343
			c2.986-2.985,7.126-4.708,11.353-4.708c4.227,0,8.357,1.722,11.343,4.708c2.996,2.985,4.708,7.127,4.708,11.343
			C284.64,371.855,282.928,375.996,279.931,378.982z"/>
	</g>
</g>
<g>
</g>
<g>
</g>
<g>
</g>
<g>
</g>
<g>
</g>
<g>
</g>
<g>
</g>
<g>
</g>
<g>
</g>
<g>
</g>
<g>
</g>
<g>
</g>
<g>
</g>
<g>
</g>
<g>
</g>
</svg>
