<?xml version="1.0" encoding="iso-8859-1"?>
<!-- Generator: Adobe Illustrator 19.0.0, SVG Export Plug-In . SVG Version: 6.00 Build 0)  -->
<svg version="1.1" id="Capa_1" xmlns="http://www.w3.org/2000/svg" xmlns:xlink="http://www.w3.org/1999/xlink" x="0px" y="0px"
	 viewBox="0 0 512.001 512.001" style="enable-background:new 0 0 512.001 512.001;" xml:space="preserve">
<g>
	<g>
		<path d="M54.294,0c-8.452,0-15.329,6.877-15.329,15.33v481.34c0,8.452,6.877,15.33,15.33,15.33H89.26V0H54.294z"/>
	</g>
</g>
<g>
	<g>
		<rect x="232.248" y="285.398" width="101.885" height="33.546"/>
	</g>
</g>
<g>
	<g>
		<path d="M400.306,0H119.299v512h281.007c40.104,0,72.73-32.626,72.73-72.73V72.73C473.036,32.626,440.41,0,400.306,0z
			 M364.176,282.782v51.184c0,8.295-6.725,15.02-15.02,15.02H217.228c-8.295,0-15.02-6.725-15.02-15.02v-50.868
			c-20.32-6.396-35.099-25.412-35.099-47.817c0-27.637,22.483-50.119,50.119-50.119c4.581,0,9.084,0.629,13.409,1.826
			c8.788-21.52,29.934-36.728,54.576-36.728c28.203,0,51.985,19.881,57.649,46.669c2.071-0.294,4.174-0.445,6.295-0.445
			c24.513,0,44.457,19.943,44.457,44.457C393.613,260.186,381.32,276.608,364.176,282.782z"/>
	</g>
</g>
<g>
	<g>
		<path d="M349.156,226.524c-3.652,0-7.135,1.367-9.808,3.85l-0.023-0.01c-2.68,2.513-6.273,4.063-10.237,4.063
			c-8.274,0-14.982-6.708-14.982-14.982c0-0.025,0.004-0.05,0.004-0.075l-0.004-0.002c0-1.502-0.023-10.393-0.054-11.973
			c-0.926-15.208-13.563-27.096-28.841-27.096c-15.898,0-28.835,12.906-28.891,28.791c0.003,0.134,0.02,0.264,0.02,0.4
			c0,8.399-6.809,15.208-15.208,15.208c-4.431,0-8.406-1.906-11.186-4.93c-3.584-2.943-8.048-4.567-12.72-4.567
			c-11.072,0-20.08,9.007-20.08,20.08c0,11.073,9.008,20.08,20.08,20.08h131.929c7.95,0,14.417-6.469,14.417-14.418
			S357.106,226.524,349.156,226.524z"/>
	</g>
</g>
<g>
</g>
<g>
</g>
<g>
</g>
<g>
</g>
<g>
</g>
<g>
</g>
<g>
</g>
<g>
</g>
<g>
</g>
<g>
</g>
<g>
</g>
<g>
</g>
<g>
</g>
<g>
</g>
<g>
</g>
</svg>
