<?xml version="1.0" encoding="iso-8859-1"?>
<!-- Generator: Adobe Illustrator 18.1.1, SVG Export Plug-In . SVG Version: 6.00 Build 0)  -->
<svg version="1.1" id="Capa_1" xmlns="http://www.w3.org/2000/svg" xmlns:xlink="http://www.w3.org/1999/xlink" x="0px" y="0px"
	 viewBox="0 0 53.608 53.608" style="enable-background:new 0 0 53.608 53.608;" xml:space="preserve">
<g>
	<g>
		<path style="fill:#010002;" d="M44.067,31.714c-0.001-0.059,0.002-0.118-0.002-0.178l-0.704-11.25
			c-0.122-1.958-1.804-3.447-3.767-3.323c-1.126,0.07-2.095,0.659-2.692,1.518c-4.167,0.882-6.034,0.907-10.305-0.109
			c-1.226-0.291-2.458,0.465-2.75,1.693c-0.292,1.227,0.465,2.458,1.692,2.75c2.596,0.617,4.535,0.894,6.394,0.894
			c0.386,0,0.768-0.016,1.151-0.039c-0.955,2.306-1.601,5.78-1.595,10.968c0,5.885,0,5.885,0,5.885l3.777-0.083
			c-0.555,3.431-0.39,7.038,0.254,10.721c0.25,1.436,0.481,2.447,1.891,2.447c0.168,0,0.34-0.015,0.512-0.045
			c1.606-0.28,2.682-1.811,2.4-3.417c-0.988-5.657,0.185-10.857,3.483-15.457C44.453,33.786,44.507,32.652,44.067,31.714z"/>
		<path style="fill:#010002;" d="M9.254,35.752h17.107v16.717H9.254V35.752z"/>
		<path style="fill:#010002;" d="M38.982,16.296c1.84-0.163,3.129-1.778,2.881-3.609l-6.662,0.59
			C35.449,15.107,37.143,16.458,38.982,16.296z"/>
		<path style="fill:#010002;" d="M34.272,5.365l0.949,6.981l6.358-0.563l-0.961-7.068c0.61-0.545,0.944-1.374,0.823-2.267
			c-0.201-1.477-1.569-2.568-3.053-2.437c-0.633,0.056-1.183,0.325-1.592,0.729c-0.508-0.322-1.117-0.488-1.748-0.432
			c-1.488,0.13-2.529,1.435-2.327,2.914C32.851,4.169,33.459,4.955,34.272,5.365z"/>
		<path style="fill:#010002;" d="M12.226,33.813h11.165v-7.777l1.14-0.415V24.7l-1.14,0.416V24.34H12.226v0.776L11.085,24.7v0.921
			l1.141,0.415C12.226,26.036,12.226,33.813,12.226,33.813z M13.24,25.355h9.135v7.443H13.24V25.355z"/>
		<path style="fill:#010002;" d="M19.67,18.334c0.35,0,0.634-0.284,0.634-0.634s-0.285-0.634-0.634-0.634
			c-0.35,0-0.634,0.284-0.634,0.634S19.32,18.334,19.67,18.334z M19.67,17.573c0.07,0,0.126,0.058,0.126,0.127
			c0,0.14-0.253,0.14-0.253,0C19.544,17.631,19.601,17.573,19.67,17.573z"/>
		<path style="fill:#010002;" d="M21.89,20.872c0.595,0,1.079-0.483,1.079-1.078s-0.484-1.079-1.079-1.079
			c-0.594,0-1.078,0.483-1.078,1.079C20.813,20.388,21.296,20.872,21.89,20.872z M21.89,19.222c0.315,0,0.571,0.256,0.571,0.571
			s-0.256,0.571-0.571,0.571c-0.314,0-0.57-0.256-0.57-0.571S21.576,19.222,21.89,19.222z"/>
		<circle style="fill:#010002;" cx="18.696" cy="21.676" r="0.888"/>
	</g>
</g>
<g>
</g>
<g>
</g>
<g>
</g>
<g>
</g>
<g>
</g>
<g>
</g>
<g>
</g>
<g>
</g>
<g>
</g>
<g>
</g>
<g>
</g>
<g>
</g>
<g>
</g>
<g>
</g>
<g>
</g>
</svg>
