<?xml version="1.0" encoding="iso-8859-1"?>
<!-- Generator: Adobe Illustrator 16.0.0, SVG Export Plug-In . SVG Version: 6.00 Build 0)  -->
<!DOCTYPE svg PUBLIC "-//W3C//DTD SVG 1.1//EN" "http://www.w3.org/Graphics/SVG/1.1/DTD/svg11.dtd">
<svg version="1.1" id="Capa_1" xmlns="http://www.w3.org/2000/svg" xmlns:xlink="http://www.w3.org/1999/xlink" x="0px" y="0px"
	 width="259.816px" height="259.816px" viewBox="0 0 259.816 259.816" style="enable-background:new 0 0 259.816 259.816;"
	 xml:space="preserve">
<g>
	<g>
		<path d="M39.789,29.169c2.194-1.792,2.544-5.015,0.784-7.227c-1.769-2.24-5.031-2.595-7.25-0.821
			c-5.414,4.306-12.555,16.354-0.831,31.106c8.788,11.066-4.889,27.228-5.021,27.375c-1.869,2.156-1.636,5.416,0.516,7.283
			c0.98,0.838,2.188,1.263,3.388,1.263c1.438,0,2.877-0.602,3.895-1.778c0.803-0.926,19.413-22.796,5.3-40.559
			C32.751,35.956,38.534,30.224,39.789,29.169z"/>
		<path d="M73.147,86.885c0.971,0.838,2.179,1.263,3.379,1.263c1.449,0,2.882-0.602,3.895-1.778
			c0.81-0.926,19.422-22.796,5.302-40.559c-7.824-9.854-2.042-15.581-0.779-16.641c2.193-1.792,2.541-5.015,0.779-7.227
			c-1.773-2.24-5.029-2.595-7.255-0.821c-5.412,4.306-12.545,16.354-0.829,31.106c8.791,11.066-4.879,27.228-5.021,27.375
			C70.762,81.758,70.998,85.014,73.147,86.885z"/>
		<path d="M173.167,86.885c0.98,0.838,2.185,1.263,3.37,1.263c1.447,0,2.88-0.602,3.906-1.778
			c0.793-0.926,19.401-22.796,5.297-40.559c-7.831-9.854-2.053-15.581-0.793-16.641c2.193-1.792,2.548-5.015,0.784-7.227
			c-1.765-2.24-5.022-2.595-7.253-0.821c-5.404,4.306-12.536,16.354-0.821,31.106c8.783,11.066-4.892,27.228-5.013,27.375
			C170.777,81.758,171.012,85.014,173.167,86.885z"/>
		<path d="M230.105,29.169c2.193-1.792,2.549-5.015,0.784-7.227c-1.773-2.24-5.026-2.595-7.253-0.821
			c-5.413,4.306-12.54,16.354-0.821,31.106c8.784,11.066-4.891,27.228-5.021,27.375c-1.876,2.156-1.634,5.416,0.514,7.283
			c0.979,0.838,2.18,1.263,3.379,1.263c1.438,0,2.875-0.602,3.901-1.778c0.794-0.926,19.406-22.796,5.302-40.559
			C223.068,35.956,228.846,30.224,230.105,29.169z"/>
		<path d="M121.722,164.17l-1.519,2.254v0.032h2.247v-2.249c0-0.467,0.028-0.934,0.051-1.429h-0.051
			C122.196,163.297,121.981,163.712,121.722,164.17z"/>
		<path d="M129.903,131.416c-18.967,0-34.394,15.43-34.394,34.396c0,18.977,15.432,34.4,34.394,34.4
			c18.977,0,34.406-15.429,34.406-34.4C164.31,146.846,148.871,131.416,129.903,131.416z M139.471,144.601l3.496-6.072
			c0.527-0.905,1.694-1.228,2.609-0.7c0.905,0.527,1.227,1.694,0.699,2.614l-3.5,6.062c-0.35,0.616-0.994,0.956-1.652,0.956
			c-0.322,0-0.653-0.084-0.952-0.252C139.256,146.678,138.939,145.511,139.471,144.601z M141.968,167.138
			c-1.209-0.406-1.703-1.068-1.703-1.802c0-1.097,0.9-1.923,2.329-1.923c0.686,0,1.283,0.159,1.651,0.359l-0.321,1.097
			c-0.252-0.153-0.757-0.354-1.303-0.354c-0.555,0-0.863,0.28-0.863,0.663c0,0.392,0.289,0.564,1.083,0.858
			c1.125,0.392,1.634,0.966,1.643,1.881c0,1.13-0.877,1.941-2.506,1.941c-0.742,0-1.414-0.182-1.881-0.434l0.317-1.139
			c0.345,0.219,1.018,0.452,1.577,0.452c0.682,0,0.985-0.284,0.985-0.695C142.98,167.609,142.72,167.408,141.968,167.138z
			 M127.992,135.546c0-1.055,0.861-1.903,1.907-1.903c1.062,0,1.909,0.854,1.909,1.903v7.006c0,1.055-0.852,1.904-1.909,1.904
			c-1.05,0-1.907-0.854-1.907-1.904V135.546z M114.234,137.843c0.908-0.537,2.084-0.22,2.609,0.695l3.498,6.067
			c0.527,0.91,0.217,2.076-0.707,2.608c-0.296,0.173-0.625,0.257-0.945,0.257c-0.665,0-1.304-0.336-1.659-0.957l-3.498-6.062
			C113.016,139.532,113.326,138.36,114.234,137.843z M114.588,162.605c-0.737,0-1.344,0.369-1.759,0.691l-0.46-1.111
			c0.598-0.48,1.491-0.849,2.534-0.849c1.82,0,2.709,1.152,2.709,2.496c0,1.447-1.043,2.614-2.49,3.939l-0.707,0.62v0.023h3.37
			v1.303h-5.577v-0.952l0.973-0.905c1.937-1.797,2.854-2.782,2.868-3.879C116.054,163.25,115.662,162.605,114.588,162.605z
			 M102.774,149.305c0.516-0.91,1.687-1.232,2.604-0.695l6.056,3.505c0.913,0.527,1.228,1.699,0.698,2.609
			c-0.359,0.611-0.994,0.947-1.659,0.947c-0.32,0-0.653-0.079-0.95-0.257l-6.06-3.5C102.555,151.387,102.244,150.22,102.774,149.305
			z M98.564,164.973c0.005-1.056,0.945-2.026,1.916-1.904l6.996,0.014c1.052,0,1.902,0.854,1.897,1.909
			c0,1.055-0.854,1.903-1.906,1.903l-6.996-0.009C99.418,166.886,98.564,166.022,98.564,164.973z M111.434,177.857l-6.065,3.482
			c-0.296,0.173-0.63,0.257-0.952,0.257c-0.663,0-1.304-0.341-1.662-0.957c-0.522-0.915-0.205-2.086,0.708-2.604l6.06-3.486
			c0.912-0.522,2.079-0.21,2.604,0.7C112.661,176.159,112.346,177.33,111.434,177.857z M120.346,185.372l-3.508,6.049
			c-0.352,0.611-0.999,0.952-1.652,0.952c-0.327,0-0.661-0.089-0.957-0.262c-0.913-0.527-1.223-1.699-0.693-2.613l3.507-6.049
			c0.516-0.915,1.692-1.228,2.604-0.695C120.562,183.29,120.873,184.457,120.346,185.372z M124.987,167.623h-1.071v2.101h-1.473
			v-2.101h-3.736v-1.008l3.375-5.134h1.834v4.97h1.071V167.623z M131.812,194.417c0,1.06-0.852,1.913-1.909,1.913
			c-1.05,0-1.906-0.858-1.906-1.913v-6.996c0-1.055,0.861-1.909,1.906-1.909c1.062,0,1.909,0.859,1.909,1.909V194.417z
			 M134.318,169.724h-1.561v-3.478c0-0.887-0.329-1.572-1.195-1.572c-0.606,0-1.036,0.41-1.218,0.877
			c-0.054,0.141-0.068,0.304-0.068,0.472v3.701h-1.556v-8.999h1.556v3.659h0.028c0.187-0.284,0.46-0.527,0.775-0.69
			c0.315-0.182,0.684-0.28,1.081-0.28c1.053,0,2.158,0.691,2.158,2.675V169.724z M137.566,166.046
			c-0.027,0.135-0.037,0.303-0.037,0.467v3.211h-1.559v-4.187c0-0.836-0.01-1.442-0.047-1.988h1.335l0.065,1.162h0.037
			c0.309-0.863,1.031-1.298,1.704-1.298c0.149,0,0.247,0.01,0.368,0.033v1.465c-0.14-0.027-0.28-0.042-0.476-0.042
			C138.229,164.865,137.717,165.336,137.566,166.046z M145.58,192.121c-0.294,0.177-0.63,0.261-0.952,0.261
			c-0.662,0-1.302-0.341-1.656-0.952l-3.501-6.062c-0.522-0.915-0.215-2.081,0.7-2.608c0.905-0.532,2.077-0.22,2.609,0.7
			l3.505,6.062C146.803,190.431,146.49,191.598,145.58,192.121z M157.047,180.653c-0.345,0.611-0.989,0.952-1.656,0.952
			c-0.312,0-0.648-0.089-0.947-0.257l-6.062-3.491c-0.91-0.527-1.228-1.703-0.705-2.608c0.527-0.91,1.703-1.223,2.613-0.7
			l6.062,3.491C157.262,178.567,157.584,179.738,157.047,180.653z M161.248,164.973c0.009,1.059-0.85,1.913-1.904,1.913
			l-7.001,0.009h-0.005c-1.05,0-1.899-0.858-1.908-1.903c0-1.06,0.858-1.909,1.908-1.909l7.006-0.01
			C160.398,163.068,161.248,163.922,161.248,164.973z M157.047,149.3c0.532,0.91,0.215,2.087-0.69,2.609l-6.067,3.505
			c-0.299,0.178-0.635,0.257-0.952,0.257c-0.662,0-1.307-0.336-1.651-0.947c-0.532-0.91-0.215-2.082,0.695-2.609l6.062-3.505
			C155.357,148.068,156.52,148.39,157.047,149.3z"/>
		<path d="M259.816,229.509v-10.319c0-5.693-4.62-10.314-10.333-10.314h-13.796c0-56.695-44.607-102.962-100.627-105.65V92.971
			c5.278-2.07,9.04-7.173,9.04-13.196c0-7.829-6.347-14.186-14.192-14.186c-7.831,0-14.197,6.356-14.197,14.186
			c0,6.023,3.762,11.126,9.038,13.196v10.254c-56.031,2.688-100.62,48.955-100.62,105.646H10.321C4.621,208.871,0,213.491,0,219.185
			v10.319c0,5.708,4.621,10.318,10.321,10.318h239.162C255.196,239.827,259.816,235.217,259.816,229.509z M129.903,204.031
			c-21.069,0-38.211-17.147-38.211-38.219c0-21.067,17.142-38.219,38.211-38.219c21.077,0,38.224,17.151,38.224,38.219
			C168.127,186.889,150.98,204.031,129.903,204.031z"/>
	</g>
</g>
<g>
</g>
<g>
</g>
<g>
</g>
<g>
</g>
<g>
</g>
<g>
</g>
<g>
</g>
<g>
</g>
<g>
</g>
<g>
</g>
<g>
</g>
<g>
</g>
<g>
</g>
<g>
</g>
<g>
</g>
</svg>
